<?xml version="1.0" encoding="utf-8"?>
<!-- Generator: Adobe Illustrator 25.2.1, SVG Export Plug-In . SVG Version: 6.00 Build 0)  -->
<svg version="1.1" id="Layer_1" xmlns="http://www.w3.org/2000/svg" xmlns:xlink="http://www.w3.org/1999/xlink" x="0px" y="0px"
	 viewBox="0 0 595.28 841.89" style="enable-background:new 0 0 595.28 841.89;" xml:space="preserve">
<style type="text/css">
	.st0{fill:#0083C2;}
	.st1{fill:#00AED9;}
	.st2{fill:#4BD1DB;}
	.st3{fill:#FFDC00;}
	.st4{fill:#FEDB00;}
</style>
<path class="st0" d="M331.59,365.75c0-3.04-8.13-4.73-8.13-4.73s0,4.25,0,3.28c0-0.97-0.96-1.11,0-0.97
	c1.7,0.24,2.91,2.43,2.91,2.43L326,401.81l-5.34-2.43c-2.21-0.81-4.41-1.7-8.01-2.19s-13.17-1.4-17.12,0l-2.79,0.85l3.52,0.49
	c0,0,8.88,0.16,12.02,0.85c5.17,0.71,9.96,2.45,14.45,4.98c2.48,0.99,5.53,2.87,8.86,5.22
	C331.59,409.58,331.59,368.79,331.59,365.75z"/>
<path class="st1" d="M288.13,397.2c3.04-2,7.67-3.98,9.51-4.37c1.84-0.39,2.87-0.61,2.87-0.61c4.33-0.99,10.36-0.72,17,0v-35.81
	c-0.48-1.68-1.56-2.37-2.95-2.55l-0.09-2.19c3.87,0.07,8.98,1.8,8.98,4.49v4.86v36.18c-2.1-0.49-4.63-1.03-6.19-1.58
	c-3.48-0.77-2.79-0.74-5.34-0.97c-3.46-0.68-7.61-0.67-12.4,0C297.35,394.87,292.74,396.17,288.13,397.2z"/>
<path class="st2" d="M284.48,396.35l3.64-3.52c3.57-2.78,5.79-3.71,7.65-4.49c4.54-1.85,8.65-2.67,12.63-3.16
	c0,0,0.83-35.68,0-37.03c-1.26-0.97-0.74-0.57-2.79-0.85v-2.06c0.24-0.32,2.79,0,2.79,0s4.71-0.14,6.07,3.88v2.55v36.54
	c-4.7-0.34-11.69,0.24-12.63,0.61c-0.9,0.35-1.85,0.26-6.56,2.06C293.01,391.92,289.25,393.52,284.48,396.35z"/>
<path class="st3" d="M282.66,366.85c1.82-2.43,3.64-2.43,5.46,0v24.04c-1.82,2.59-3.64,2.59-5.46,0V366.85z"/>
<path class="st3" d="M291.65,354.71c2-2.91,3.99-2.91,5.99,0l-0.53,29.99c-0.32,3.25-4.37,3.25-5.46,0.85V354.71z"/>
<path class="st4" d="M300.51,342.93c1.41-1.32,3.04-1.6,5.1,0v39.58c-1.37,1.34-3.78,1.55-5.1,0V342.93z"/>
</svg>
